<svg xmlns="http://www.w3.org/2000/svg" xmlns:xlink="http://www.w3.org/1999/xlink" viewBox="0 0 6021.62 2355.39" xmlns:v="https://vecta.io/nano"><defs><linearGradient id="A" x1="997.6" y1="2486.31" x2="1002.62" y2="880.39" xlink:href="#F"><stop offset="0" stop-color="#fff" stop-opacity="0"/><stop offset=".69" stop-color="#fff"/></linearGradient><linearGradient id="B" x1="3087.55" y1="2484.48" x2="3085.56" y2="904.77" xlink:href="#F"><stop offset="0" stop-color="#fff" stop-opacity="0"/><stop offset=".39" stop-color="#fff" stop-opacity=".57"/><stop offset=".68" stop-color="#fff"/></linearGradient><linearGradient id="C" x1="4360.65" y1="2490.69" x2="4353.52" y2="929.72" xlink:href="#F"><stop offset="0" stop-color="#fff" stop-opacity="0"/><stop offset=".23" stop-color="#fff" stop-opacity=".35"/><stop offset=".68" stop-color="#fff"/></linearGradient><linearGradient id="D" x1="5666.97" y1="2494.09" x2="5664.66" y2="923.54" xlink:href="#F"><stop offset="0" stop-color="#fff" stop-opacity="0"/><stop offset=".29" stop-color="#fff" stop-opacity=".43"/><stop offset=".68" stop-color="#fff"/></linearGradient><linearGradient id="E" x1="2016.99" y1="590.08" x2="2015.66" y2="1990.07" xlink:href="#F"><stop offset=".18" stop-color="#6a94cc"/><stop offset=".24" stop-color="#658fc6"/><stop offset=".33" stop-color="#557fb5"/><stop offset=".42" stop-color="#3c6699"/><stop offset=".52" stop-color="#1a4473"/><stop offset=".53" stop-color="#143e6d"/></linearGradient><linearGradient id="F" gradientUnits="userSpaceOnUse"/></defs><g transform="translate(-196.39 -347.23)"><path d="M529.81,2166.11V1823.67H196.39v342.44Zm635.78,0V1823.67H833.08v342.44Zm469.07,380.27.83-228.75H1468.73q-2.38,64.53-40.51,102.39-40.65,40.38-109.15,40.38-46.6,0-80.84-17.06t-53.45-46.63q-19.18-29.55-19.19-68.65v-10.43H833q-1.71,63.84-39.19,102.4-39.28,40.36-110.5,40.37-45.72,0-80.42-17.47T549,2393.81q-19.18-31.64-19.18-73.25v-2.93H196.39V2676H529.81v-86.55Q604.69,2649.31,670,2676t138.41,26.65q106,0,193.2-42.48T1127.23,2547q74,79.88,151.17,117.78t172.21,37.88q102.3,0,181.32-38.71t124.69-108.64a275,275,0,0,0,39.54-98.23Zm167.65-515.86V1823.67H1468.89v342.44H1636l.85-228.77Z" fill="url(#A)"/><path d="M3260.94,2166.11H3592V1823.67h-331.1ZM3592,2365.5v-47.87H3260.27q-4.83,64.78-46,104.06-46.7,44.52-126.52,44.55-52.62,0-92.08-20t-60.77-54.94q-19.5-32-21.15-73.67h-132l-.85,231.58-198.43-111.79V2676h331.08v-86.55q59,52.43,139.69,82.82t171.42,30.38q106.15,0,188.69-43.72t130.61-119Q3592,2464.52,3592,2365.5Zm-809.73-199.39h131.23V1823.67H2582.47v221.87l200.69-111Z" fill="url(#B)"/><path d="M4562.15,2166.11H4907V1823.67h-333.4v88.23q-65.79-56.62-142.54-85.74T4269.41,1797q-128.81,0-233.86,58.67t-167.17,161.46q-41.19,68.14-55,148.94h363.09a178.52,178.52,0,0,1,8.94-16.16q27.38-44.1,75.38-69.93t109.14-25.8q61.21,0,109.19,25.8t74.44,69.93A183,183,0,0,1,4562.15,2166.11ZM4573.63,2676H4907V2317.63h-338.5a173,173,0,0,1-15.92,32.47q-27.42,43.71-74.47,69.51t-108.25,25.8q-60.29,0-108.24-25.8t-75.83-69.92a177,177,0,0,1-16-32.06H3810.43q11.46,89.05,54.76,164,58.91,102,163.51,161.48t240.71,59.53q89.52,0,169-27.48t135.24-77.39V2676Z" fill="url(#C)"/><path d="M6217.31,2249.81q0-128.19-60.76-230.57T5992.11,1857q-103.7-59.89-234.29-59.92-86.81,0-165.36,29.54A463.65,463.65,0,0,0,5450,1911.9v-521H5116.53v775.25h345a178.6,178.6,0,0,1,9.46-17.44q27.4-44.52,75.36-69.47t109.18-25q61.18,0,108.24,25t74,68.64q26.94,43.71,27,101.14,0,56.59-27.41,100.71t-74.44,69.92q-47.06,25.79-108.26,25.8-60.32,0-108.26-25.38T5471,2350.1a181.89,181.89,0,0,1-15.77-32.47H5116.54V2676H5450v-78.22q56.64,49.94,134.27,77.39t165.37,27.48q134.26,0,240.23-59.12T6156.55,2482Q6217.32,2379.68,6217.31,2249.81Z" fill="url(#D)"/></g><path d="M.69 1045.04v342.44h333.42v-342.44zm636.69 0v342.44h332.51v-342.44zm963.09-290.92a275 275 0 0 0-39.54-98.23q-45.67-69.95-124.69-108.64-79.02-38.69-181.33-38.71-95 0-172.2 37.88-77.2 37.88-151.17 117.78-38.37-70.74-125.61-113.18-87.24-42.44-193.2-42.48-73.1 0-138.41 26.65-65.31 26.65-140.21 86.58v-86.58H.69v358.33h333.42v-2.93q0-41.62 19.18-73.25 19.18-31.63 53.89-49.11 34.71-17.46 80.43-17.46 71.24 0 110.51 40.38 37.46 38.52 39.19 102.39h332.6v-10.43q0-39.08 19.19-68.65 19.19-29.57 53.46-46.63 34.23-17 80.83-17 68.51 0 109.16 40.37 38.1 37.86 40.5 102.4h166.77l-.84-228.76zm-159.28 519.7l-.85-228.78h-167.15v342.44h333.42v-206.85zm1624.06 113.66h331.09v-342.44h-331.09zm283-716.19q-48.07-75.35-130.62-119-82.55-43.65-188.68-43.72-90.71 0-171.42 30.38-80.71 30.38-139.68 82.82v-86.58h-331.08v238.58l198.43-111.8.85 231.58h132q1.67-41.68 21.15-73.67 21.33-35 60.77-54.94 39.44-19.94 92.09-20 79.82 0 126.52 44.56 41.18 39.24 46 104h331.77v-47.87q0-99-48.08-174.34zm-760.81 605.35l-200.69-111v221.87h331.08v-342.47h-131.22zm1770.39-215.44q-26.49 44.11-74.45 69.93-47.96 25.82-109.19 25.8-61.18 0-109.14-25.8-47.96-25.8-75.37-69.93a176.1 176.1 0 0 1-8.94-16.16h-363.13q13.84 80.79 55 148.94 62.11 102.8 167.16 161.46 105.05 58.66 233.87 58.67 84.95 0 161.68-29.12 76.73-29.12 142.53-85.74v88.23h333.41v-342.44h-344.8a183 183 0 0 1-8.63 16.16zm20.1-526v78.22q-55.74-49.93-135.23-77.39-79.49-27.46-169-27.48-136.11 0-240.72 59.54-104.61 59.54-163.51 161.47-43.3 74.91-54.75 164h359.39a175.94 175.94 0 0 1 16-32q27.87-44.12 75.82-69.93 47.95-25.81 108.24-25.8 61.22 0 108.26 25.8 47.04 25.8 74.46 69.51a172.75 172.75 0 0 1 15.92 32.48h338.51V535.19zm1582.93 193.93q-60.78-102.36-166.72-161.47-105.94-59.11-240.24-59.12-87.71 0-165.37 27.48-77.66 27.48-134.27 77.39v-78.22h-333.42v358.33h338.65a181.26 181.26 0 0 1 15.78-32.47q27.39-44.52 75.36-69.92 47.97-25.4 108.26-25.36 61.22 0 108.25 25.8 47.03 25.8 74.45 69.92 27.36 44.11 27.41 100.71 0 57.42-27 101.14-27 43.72-74 68.65-47.06 25-108.24 25-61.18 0-109.17-25-48-25-75.36-69.48a177.54 177.54 0 0 1-9.47-17.44h-345v775.25h333.42v-521a464 464 0 0 0 142.51 85.33q78.51 29.52 165.35 29.53 130.59 0 234.3-59.92 103.71-59.92 164.44-162.28 60.83-102.44 60.83-230.64 0-129.83-60.75-232.21z" fill="#fff"/><path d="M2183.48 88.64q-26.48-40.35-70.34-64.5Q2069.28-.01 2016.31 0q-53.89 0-98.64 24.14-44.75 24.14-70.82 64.08-26 40-26 89.08 0 49.08 26 89.47 26 40.37 70.82 64.08 44.82 23.71 98.64 23.73 53 0 96.83-23.73 43.83-23.73 70.34-64.08 26.48-40.37 26.51-89.47a158.42 158.42 0 0 0-26.51-88.66z" fill="#6a94cc"/><path d="M2384.61 1759.48l-366.32 284.08-371.15-277.28 202.02-1.87v-720.42l136.37-76.83-136.37-75.46V535.19h333.42v353.58l-146.76 82.68 146.76 81.19v334.85h-.02v373.85l202.05-1.86z" fill="url(#E)"/></svg>