<svg xmlns="http://www.w3.org/2000/svg" viewBox="0 0 4860 1980" height="198" width="486" version="1.0"><path d="M0 990V0h4860v1980H0V990z" fill="#020100"/><path d="M0 990V0h4860v1980H0zm1884 595l128-100-81-3-81-3V992l-45-29c-25-15-45-31-45-35s20-19 45-34l45-26V600h-250v268l45 26c25 15 45 30 45 34s-20 20-45 35l-45 29v487l-81 3-81 3 143 112c120 93 141 115 154 106 12-7 75-57 149-118zm2226-230c0-96 3-175 6-175s24 10 47 23c200 111 471-10 505-226 17-109-17-208-97-280-36-32-57-44-134-76-15-6-66-11-113-11a274 274 0 00-180 51c-10 16-32 9-37-11-5-19-14-20-121-20h-116v240h118c115 0 119-1 143-26 36-39 72-54 130-54 61 0 124 31 145 72 21 40 18 105-7 139-27 38-88 69-135 69-44 0-120-34-137-61-11-17-25-19-134-19h-123v263c0 145 3 267 7 270 3 4 57 7 120 7h113zm-798-117c29-6 73-24 97-40 45-30 56-28 63 7 3 19 11 20 113 20h110l3-117 3-118h-119c-108 0-121 2-138 21-29 32-89 59-130 59-45 0-120-34-135-61-9-17-22-19-139-19-100 0-130 3-130 13a323 323 0 00265 232c80 17 76 17 137 3zM478 1108l3-118H250v113c0 63 3 117 7 121 4 3 54 5 112 4l106-3zm477 2V995l-117-3-118-3v114c0 63 3 117 7 121 4 3 57 5 117 4l111-3zm463 58c3-64-3-70-48-38-15 11-38 21-51 22-23 3-24 1-27-80l-3-83-52 3-52 3-3 104c-1 58 0 111 2 118 4 11 31 13 118 11l113-3zm820-60l3-118h-91v80c0 95-11 105-68 68-69-45-72-45-72 21 0 32 3 61 7 65 4 3 54 5 112 4l106-3zm497 2V995l-117-3-118-3v114c0 63 3 117 7 121 4 3 57 5 117 4l111-3zM506 835c21-45 65-69 112-62 44 8 82 33 82 55 0 36 20 42 139 42h116l23-36c41-63 125-75 173-23 16 17 29 37 29 45 0 10 15 14 55 14h55v-72c0-100 6-106 64-74 38 21 46 23 46 10 0-29-42-76-84-94-61-27-128-34-188-20-67 16-96 31-137 69-18 17-35 31-38 31-2 0-19-14-36-32-97-97-289-100-404-6-9 7-14 6-18-6l-10-31c-3-12-26-15-120-15H250v240h239zm1753 13c15-39 48-61 98-65 63-6 99 9 124 52l21 35h114c132 0 135-2 114-84-19-76-48-113-109-143-95-47-236-41-316 13-44 30-53 30-57 2-3-22-7-23-120-26l-118-3v78c0 63 2 74 13 61 6-9 34-29 61-43 60-33 66-27 66 73v72h50c43 0 52-3 59-22zm922-4c36-39 72-54 131-54 55 0 106 23 137 61 15 18 27 20 136 17l120-3V635l-117-3c-99-2-118 0-118 12 0 27-17 26-74-5-54-30-60-31-159-27-113 4-167 22-231 79-52 45-115 157-98 174 3 3 60 5 127 5 118 0 122-1 146-26zM1783 485c100-42 100-148 0-190-45-19-71-19-116 0-72 30-97 97-56 149 40 51 109 68 172 41z" fill="#7f561e"/><path d="M868 1973l-868-3V0h4860v1960l-37 1-38 2 40 7c38 7-2084 8-3957 3zm1016-388l128-100-81-3-81-3V992l-45-29c-25-15-45-31-45-35s20-19 45-34l45-26V600h-250v268l45 26c25 15 45 30 45 34s-20 20-45 35l-45 29v487l-81 3-81 3 143 112c120 93 134 106 147 108 13-2 28-17 156-120zm2226-230c0-96 3-175 6-175s24 10 47 23c200 111 471-10 505-226 17-109-17-208-97-280-36-32-57-44-134-76-15-6-66-11-113-11a274 274 0 00-180 51c-10 16-32 9-37-11-5-19-14-20-121-20h-116v240h118c115 0 119-1 143-26 36-39 72-54 130-54 61 0 124 31 145 72 21 40 18 105-7 139-27 38-88 69-135 69-44 0-120-34-137-61-11-17-25-19-134-19h-123v263c0 145 3 267 7 270 3 4 57 7 120 7h113zm-798-117c29-6 73-24 97-40 45-30 56-28 63 7 3 19 11 20 113 20h110l3-117 3-118h-119c-108 0-121 2-138 21-29 32-89 59-130 59-45 0-120-34-135-61-9-17-22-19-139-19-100 0-130 3-130 13a323 323 0 00265 232c80 17 76 17 137 3zM478 1108l3-118H250v113c0 63 3 117 7 121 4 3 57 4 112 4l106-3zm477 2V995l-117-3-118-3v114c0 63 3 117 7 121 4 3 57 5 117 4l111-3zm463 58c3-64-3-70-48-38-15 11-38 21-51 22-23 3-24 1-27-80l-3-83-52 3-52 3-3 104c-1 58 0 111 2 118 4 11 31 13 118 11l113-3zm820-60l3-118h-91v80c0 95-11 105-68 68-69-45-72-45-72 21 0 32 3 61 7 65 4 3 54 5 112 4l106-3zm497 2V995l-117-3-118-3v114c0 63 3 117 7 121 4 3 57 5 117 4l111-3zM506 835c21-45 65-69 112-62 44 8 82 33 82 55 0 36 20 42 139 42h116l23-36c41-63 125-75 173-23 16 17 29 37 29 45 0 10 15 14 55 14h55v-72c0-100 6-106 64-74 38 21 46 23 46 10 0-29-42-76-84-94-61-27-128-34-188-20-67 16-96 31-137 69-18 17-35 31-38 31-2 0-19-14-36-32-97-97-289-100-404-6-9 7-14 6-18-6l-10-31c-3-12-26-15-120-15H250v240h239zm1753 13c15-39 48-61 98-65 63-6 99 9 124 52l21 35h114c132 0 135-2 114-84-19-76-48-113-109-143-95-47-236-41-316 13-44 30-53 30-57 2-3-22-7-23-120-26l-118-3v78c0 63 2 74 13 61 6-9 34-29 61-43 60-33 66-27 66 73v72h50c43 0 52-3 59-22zm922-4c36-39 72-54 131-54 55 0 106 23 137 61 15 18 27 20 136 17l120-3V635l-117-3c-99-2-118 0-118 12 0 27-17 26-74-5-54-30-60-31-159-27-113 4-167 22-231 79-52 45-115 157-98 174 3 3 60 5 127 5 118 0 122-1 146-26zM1783 485c100-42 100-148 0-190-45-19-71-19-116 0-72 30-97 97-56 149 40 51 109 68 172 41z" fill="#fff"/></svg>